<svg xmlns="http://www.w3.org/2000/svg" width="116.192" height="39.56" viewBox="0 0 116.192 39.56">
  <g id="Grupo_5629" data-name="Grupo 5629" transform="translate(288 159.33)">
    <path id="Caminho_11720" data-name="Caminho 11720" d="M8.1-16.33h2.829L13.294,0H10.028L9.616-4.071H4.189L2.047,0H-1.219ZM9.39-6.3l-.65-6.417L5.363-6.3Zm5.859,4.436a3.677,3.677,0,0,1,.023-.41q.023-.205.069-.433l1.472-6.859H15.318l.506-2.369H17.3l.828-3.91h3.082l-.828,3.91h2.415l-.506,2.369H19.9L18.63-3.757a1.5,1.5,0,0,0-.035.181,1.445,1.445,0,0,0-.012.181.7.7,0,0,0,.253.613,1.037,1.037,0,0,0,.621.182,2.8,2.8,0,0,0,.61-.069,3.49,3.49,0,0,0,.586-.184q.276-.115.483-.184L21.229-.6q-.46.207-1.035.4A8.542,8.542,0,0,1,19,.115,6.807,6.807,0,0,1,17.756.23a3.1,3.1,0,0,1-1.794-.49A1.808,1.808,0,0,1,15.249-1.866ZM5.589,23.115a10.023,10.023,0,0,1-3.335-.563A8.2,8.2,0,0,1-.483,21L1.5,18.262a2.82,2.82,0,0,0,.552.541,6.353,6.353,0,0,0,1.058.667,7.816,7.816,0,0,0,1.449.563,6.167,6.167,0,0,0,1.7.23,4.222,4.222,0,0,0,1.53-.239,1.882,1.882,0,0,0,.908-.683,1.81,1.81,0,0,0,.3-1.036,1.206,1.206,0,0,0-.449-.985,4.267,4.267,0,0,0-1.23-.653q-.782-.286-1.794-.607a9.624,9.624,0,0,1-1.932-.825A3.328,3.328,0,0,1,2.4,14.125,2.931,2.931,0,0,1,2,12.556a5.588,5.588,0,0,1,.563-2.542,5.52,5.52,0,0,1,1.541-1.89,7.085,7.085,0,0,1,2.22-1.168,8.408,8.408,0,0,1,2.6-.4,7.656,7.656,0,0,1,2.013.253,8.029,8.029,0,0,1,1.7.667,7.893,7.893,0,0,1,1.345.9l-1.955,2.576a1.434,1.434,0,0,0-.414-.437,4.531,4.531,0,0,0-.874-.529,8.322,8.322,0,0,0-1.173-.448,4.567,4.567,0,0,0-1.334-.2,3.831,3.831,0,0,0-1.53.275,1.984,1.984,0,0,0-.931.755,2.123,2.123,0,0,0-.3,1.144,1.129,1.129,0,0,0,.357.847,2.86,2.86,0,0,0,1.023.583q.667.24,1.633.538a10.83,10.83,0,0,1,2.127.824,3.931,3.931,0,0,1,1.415,1.2,3.134,3.134,0,0,1,.506,1.842,5.517,5.517,0,0,1-.587,2.632,5.007,5.007,0,0,1-1.575,1.785,7.1,7.1,0,0,1-2.22,1.018A9.806,9.806,0,0,1,5.589,23.115ZM17.089,6.21h3.082l-1.5,7.08a6.3,6.3,0,0,1,2.093-1.774,5.353,5.353,0,0,1,2.507-.637,3.222,3.222,0,0,1,1.69.375,2.132,2.132,0,0,1,.874,1,3.619,3.619,0,0,1,.265,1.421,7.8,7.8,0,0,1-.058.933,8.332,8.332,0,0,1-.173.955L24.288,23H21.206l1.426-6.664q.069-.317.1-.589a4.148,4.148,0,0,0,.035-.521A1.77,1.77,0,0,0,22.4,13.99a1.342,1.342,0,0,0-1.035-.4,2.571,2.571,0,0,0-1.115.314,4.922,4.922,0,0,0-1.208.865,4.72,4.72,0,0,0-.943,1.269L16.606,23H13.524ZM31.625,23.23a3.975,3.975,0,0,1-2.289-.648,4.251,4.251,0,0,1-1.472-1.751,5.8,5.8,0,0,1-.517-2.491,7.622,7.622,0,0,1,.529-2.821,7.933,7.933,0,0,1,1.46-2.388,7.185,7.185,0,0,1,2.116-1.649,5.429,5.429,0,0,1,2.5-.6,3.452,3.452,0,0,1,2.116.648,3.255,3.255,0,0,1,1.2,1.649l.46-2.113H40.8L39.008,19.32q-.023.112-.046.213a.861.861,0,0,0-.023.191q0,.471.552.493l-.552,2.622q-.414.069-.724.115a3.754,3.754,0,0,1-.541.046,2.252,2.252,0,0,1-1.288-.316,1.076,1.076,0,0,1-.46-.949,1.053,1.053,0,0,1,.023-.2q.023-.116.046-.274a2.755,2.755,0,0,1,.069-.327,5.985,5.985,0,0,1-2.07,1.706A5.312,5.312,0,0,1,31.625,23.23ZM33,20.608a2.62,2.62,0,0,0,.828-.146,4.272,4.272,0,0,0,.862-.4,4.16,4.16,0,0,0,.793-.628,4.085,4.085,0,0,0,.621-.8l.6-2.843a2.554,2.554,0,0,0-.414-1.168,2.663,2.663,0,0,0-.851-.82,2.068,2.068,0,0,0-1.081-.3,2.9,2.9,0,0,0-1.415.372,4.3,4.3,0,0,0-1.207.993,4.987,4.987,0,0,0-.84,1.4,4.258,4.258,0,0,0-.311,1.591,3.228,3.228,0,0,0,.3,1.4,2.4,2.4,0,0,0,.839.993A2.244,2.244,0,0,0,33,20.608Zm10.81-9.545h2.829l-.552,2.552a7.455,7.455,0,0,1,1.967-1.949,3.907,3.907,0,0,1,2.15-.718q.23,0,.357.012a.91.91,0,0,1,.2.035l-.575,2.737a5.9,5.9,0,0,0-2.472.529,4.294,4.294,0,0,0-1.828,1.519L44.344,23H41.262ZM55.223,23.23a5.149,5.149,0,0,1-2.633-.648,4.3,4.3,0,0,1-1.7-1.8,5.645,5.645,0,0,1-.586-2.6,6.926,6.926,0,0,1,.575-2.8,7.327,7.327,0,0,1,1.61-2.331,7.637,7.637,0,0,1,5.4-2.172,6.1,6.1,0,0,1,2.277.387,3.28,3.28,0,0,1,1.5,1.128,3.034,3.034,0,0,1,.529,1.811,3.119,3.119,0,0,1-1.737,2.87,10.885,10.885,0,0,1-5.209.98q-.69,0-1.495-.035T52,17.894l.391-1.932q.828.069,1.518.1t1.357.035a10.8,10.8,0,0,0,2.358-.2,2.644,2.644,0,0,0,1.253-.585,1.217,1.217,0,0,0,.391-.9,1.117,1.117,0,0,0-.23-.731,1.421,1.421,0,0,0-.632-.427,2.8,2.8,0,0,0-.955-.146,3.311,3.311,0,0,0-1.645.418,4.218,4.218,0,0,0-1.3,1.142,5.458,5.458,0,0,0-.851,1.65,6.365,6.365,0,0,0-.3,1.966,3.517,3.517,0,0,0,.264,1.39,2.07,2.07,0,0,0,.793.961,2.474,2.474,0,0,0,1.357.339,3.626,3.626,0,0,0,1.736-.437,3.368,3.368,0,0,0,1.3-1.219l2.438.759a6.3,6.3,0,0,1-1.564,1.633,7.981,7.981,0,0,1-2.116,1.115A7.054,7.054,0,0,1,55.223,23.23Z" transform="translate(-234 -143)" fill="#550073"/>
    <path id="Caminho_11719" data-name="Caminho 11719" d="M44.033-30.018l-11.68-10.7a1.586,1.586,0,0,0-2.632,1.28v5.74c-11.053.126-19.815,2.33-19.815,12.74,0,4.2,2.725,8.367,5.734,10.542a1.224,1.224,0,0,0,1.93-1.274c-3.121-9.918,2.243-12.1,12.15-12.171v5.743a1.586,1.586,0,0,0,2.633,1.278l11.68-10.7A1.677,1.677,0,0,0,44.033-30.018ZM32.2-11.4a2.477,2.477,0,0,0-2.477,2.477v2.407H4.954v-24.7H7.43a2.477,2.477,0,0,0,2.477-2.477A2.475,2.475,0,0,0,7.43-36.171H4.954A4.953,4.953,0,0,0,0-31.218v24.7A4.954,4.954,0,0,0,4.954-1.565H29.722a4.954,4.954,0,0,0,4.954-4.954V-8.926A2.474,2.474,0,0,0,32.2-11.4Z" transform="translate(-288 -118.205)" fill="#550073"/>
  </g>
</svg>
